<svg width="49" height="49" viewBox="0 0 49 49" fill="none" xmlns="http://www.w3.org/2000/svg">
<path d="M24.4329 12L25.2684 10.7543L24.4329 10.1939L23.5974 10.7542L24.4329 12ZM24.7114 12.1868L25.5469 10.9411L25.5469 10.9411L24.7114 12.1868ZM24.1544 12.1868L23.3188 10.941L23.3188 10.941L24.1544 12.1868ZM11.6542 20.5707L12.4897 21.8165L12.4897 21.8165L11.6542 20.5707ZM11 21.0095L10.1645 19.7637L8.20201 21.0799L10.2282 22.2957L11 21.0095ZM11.6754 21.4147L10.9037 22.7009L10.9037 22.7009L11.6754 21.4147ZM17.6827 25.0191H19.1827V24.1699L18.4545 23.7329L17.6827 25.0191ZM17.6827 32.4923H16.1827V33.2606L16.8063 33.7096L17.6827 32.4923ZM17.8906 32.6419L18.767 31.4246L18.767 31.4246L17.8906 32.6419ZM24.1406 37.1419L25.0171 35.9246L25.0171 35.9246L24.1406 37.1419ZM24.4328 37.3523L23.5563 38.5696L24.4328 39.2006L25.3092 38.5696L24.4328 37.3523ZM24.7249 37.1419L23.8484 35.9246L23.8484 35.9246L24.7249 37.1419ZM30.9749 32.6419L30.0985 31.4246L30.0985 31.4246L30.9749 32.6419ZM31.1828 32.4923L32.0592 33.7096L32.6828 33.2606V32.4923H31.1828ZM31.1828 25.0191L30.411 23.7329L29.6828 24.1698V25.0191H31.1828ZM36.4327 21.8691H37.9327V19.2197L35.6609 20.5828L36.4327 21.8691ZM36.4327 28.4861H34.9327V29.9861H36.4327V28.4861ZM37.4327 28.4861V29.9861H38.9327V28.4861H37.4327ZM37.4327 20.7193H38.9327V19.9192L38.2682 19.4735L37.4327 20.7193ZM37.2112 20.5707L36.3756 21.8165L36.3756 21.8165L37.2112 20.5707ZM18.6827 25.6192L19.4545 24.3329L17.1827 22.9698V25.6192H18.6827ZM18.6827 31.98H17.1827V32.7484L17.8063 33.1973L18.6827 31.98ZM24.1755 28.9149L24.9473 27.6287L24.9473 27.6287L24.1755 28.9149ZM24.4328 29.0692L23.661 30.3555L24.4328 30.8185L25.2045 30.3555L24.4328 29.0692ZM24.69 28.9149L23.9182 27.6287L23.9182 27.6287L24.69 28.9149ZM30.1828 25.6191H31.6828V22.9698L29.411 24.3329L30.1828 25.6191ZM30.1828 31.98L31.0592 33.1973L31.6828 32.7484V31.98H30.1828ZM24.4328 36.12L23.5563 37.3373L24.4328 37.9684L25.3092 37.3373L24.4328 36.12ZM36 20.9625L36.7718 22.2487L38.798 21.033L36.8356 19.7167L36 20.9625ZM30.4255 24.3073L29.6538 23.021L29.6538 23.021L30.4255 24.3073ZM24.4329 13.2041L25.2684 11.9584L24.4329 11.398L23.5973 11.9583L24.4329 13.2041ZM12.8653 20.9625L12.0298 19.7167L10.0673 21.0329L12.0936 22.2487L12.8653 20.9625ZM18.44 24.3073L19.2117 23.0211L19.2117 23.0211L18.44 24.3073ZM24.4327 27.903L23.661 29.1893L24.4328 29.6523L25.2045 29.1893L24.4327 27.903ZM3.5 8C3.5 5.51472 5.51472 3.5 8 3.5V0.5C3.85787 0.5 0.5 3.85786 0.5 8H3.5ZM3.5 41V8H0.5V41H3.5ZM8 45.5C5.51472 45.5 3.5 43.4853 3.5 41H0.5C0.5 45.1421 3.85786 48.5 8 48.5V45.5ZM41 45.5H8V48.5H41V45.5ZM45.5 41C45.5 43.4853 43.4853 45.5 41 45.5V48.5C45.1421 48.5 48.5 45.1421 48.5 41H45.5ZM45.5 8V41H48.5V8H45.5ZM41 3.5C43.4853 3.5 45.5 5.51472 45.5 8H48.5C48.5 3.85787 45.1421 0.5 41 0.5V3.5ZM8 3.5H41V0.5H8V3.5ZM23.5973 13.2457L23.8758 13.4325L25.5469 10.9411L25.2684 10.7543L23.5973 13.2457ZM24.9899 13.4326L25.2684 13.2458L23.5974 10.7542L23.3188 10.941L24.9899 13.4326ZM12.4897 21.8165L24.9899 13.4326L23.3188 10.941L10.8186 19.325L12.4897 21.8165ZM11.8355 22.2552L12.4897 21.8165L10.8186 19.325L10.1645 19.7637L11.8355 22.2552ZM12.4472 20.1285L11.7718 19.7232L10.2282 22.2957L10.9037 22.7009L12.4472 20.1285ZM18.4545 23.7329L12.4472 20.1285L10.9037 22.7009L16.911 26.3054L18.4545 23.7329ZM19.1827 32.2361V25.0191H16.1827V32.2361H19.1827ZM19.1827 32.4923V32.2361H16.1827V32.4923H19.1827ZM18.767 31.4246L18.5592 31.275L16.8063 33.7096L17.0141 33.8592L18.767 31.4246ZM25.0171 35.9246L18.767 31.4246L17.0141 33.8592L23.2641 38.3592L25.0171 35.9246ZM25.3092 36.135L25.0171 35.9246L23.2641 38.3592L23.5563 38.5696L25.3092 36.135ZM23.8484 35.9246L23.5563 36.135L25.3092 38.5696L25.6014 38.3592L23.8484 35.9246ZM30.0985 31.4246L23.8484 35.9246L25.6014 38.3592L31.8514 33.8592L30.0985 31.4246ZM30.3064 31.275L30.0985 31.4246L31.8514 33.8592L32.0592 33.7096L30.3064 31.275ZM29.6828 32.2361V32.4923H32.6828V32.2361H29.6828ZM29.6828 25.0191V32.2361H32.6828V25.0191H29.6828ZM35.6609 20.5828L30.411 23.7329L31.9546 26.3053L37.2044 23.1553L35.6609 20.5828ZM37.9327 28.4861V21.8691H34.9327V28.4861H37.9327ZM37.4327 26.9861H36.4327V29.9861H37.4327V26.9861ZM35.9327 20.986V28.4861H38.9327V20.986H35.9327ZM35.9327 20.7193V20.986H38.9327V20.7193H35.9327ZM36.3756 21.8165L36.5971 21.965L38.2682 19.4735L38.0467 19.325L36.3756 21.8165ZM23.8758 13.4325L36.3756 21.8165L38.0467 19.325L25.5469 10.9411L23.8758 13.4325ZM17.1827 25.6192V31.98H20.1827V25.6192H17.1827ZM24.9473 27.6287L19.4545 24.3329L17.911 26.9054L23.4037 30.2011L24.9473 27.6287ZM25.2045 27.783L24.9473 27.6287L23.4037 30.2011L23.661 30.3555L25.2045 27.783ZM23.9182 27.6287L23.661 27.783L25.2045 30.3555L25.4618 30.2011L23.9182 27.6287ZM29.411 24.3329L23.9182 27.6287L25.4618 30.2011L30.9546 26.9053L29.411 24.3329ZM31.6828 31.98V25.6191H28.6828V31.98H31.6828ZM25.3092 37.3373L31.0592 33.1973L29.3063 30.7627L23.5563 34.9027L25.3092 37.3373ZM17.8063 33.1973L23.5563 37.3373L25.3092 34.9027L19.5592 30.7627L17.8063 33.1973ZM35.2283 19.6762L29.6538 23.021L31.1973 25.5935L36.7718 22.2487L35.2283 19.6762ZM23.5973 14.4498L35.1645 22.2082L36.8356 19.7167L25.2684 11.9584L23.5973 14.4498ZM13.7008 22.2082L25.2684 14.4499L23.5973 11.9583L12.0298 19.7167L13.7008 22.2082ZM19.2117 23.0211L13.6371 19.6762L12.0936 22.2487L17.6682 25.5935L19.2117 23.0211ZM25.2045 26.6168L19.2117 23.0211L17.6682 25.5935L23.661 29.1893L25.2045 26.6168ZM29.6538 23.021L23.661 26.6168L25.2045 29.1893L31.1973 25.5935L29.6538 23.021Z" fill="url(#paint0_linear_833_5306)"/>
<defs>
<linearGradient id="paint0_linear_833_5306" x1="23.7094" y1="3.09859" x2="23.7094" y2="46.7615" gradientUnits="userSpaceOnUse">
<stop stop-color="#0000000"/>
<stop offset="1" stop-color="#0000000"/>
</linearGradient>
</defs>
</svg>
