<svg width="49" height="49" viewBox="0 0 49 49" fill="none" xmlns="http://www.w3.org/2000/svg">
<path d="M15 47V48.5H16.5V47H15ZM15 15V13.5H13.5V15H15ZM33 15H34.5V13.5H33V15ZM33 36V37.5H34.5V36H33ZM32 36H30.5V37.5H32V36ZM32 16H33.5V14.5H32V16ZM16 16V14.5H14.5V16H16ZM16 30.5H14.5V32H16V30.5ZM21 30.5H22.5V29H21V30.5ZM21 31.5V33H22.5V31.5H21ZM16 31.5V30H14.5V31.5H16ZM16 47H14.5V48.5H16V47ZM3.5 8C3.5 5.51472 5.51472 3.5 8 3.5V0.5C3.85787 0.5 0.5 3.85786 0.5 8H3.5ZM3.5 41V8H0.5V41H3.5ZM8 45.5C5.51472 45.5 3.5 43.4853 3.5 41H0.5C0.5 45.1421 3.85786 48.5 8 48.5V45.5ZM15 45.5H8V48.5H15V45.5ZM13.5 15.5V47H16.5V15.5H13.5ZM13.5 15V15.5H16.5V15H13.5ZM15.5 13.5H15V16.5H15.5V13.5ZM32.5 13.5H15.5V16.5H32.5V13.5ZM33 13.5H32.5V16.5H33V13.5ZM34.5 15.5V15H31.5V15.5H34.5ZM34.5 36V15.5H31.5V36H34.5ZM32 37.5H33V34.5H32V37.5ZM30.5 16V36H33.5V16H30.5ZM16 17.5H32V14.5H16V17.5ZM17.5 30.5V16H14.5V30.5H17.5ZM21 29H16V32H21V29ZM22.5 31.5V30.5H19.5V31.5H22.5ZM16 33H21V30H16V33ZM17.5 47V31.5H14.5V47H17.5ZM41 45.5H16V48.5H41V45.5ZM45.5 41C45.5 43.4853 43.4853 45.5 41 45.5V48.5C45.1421 48.5 48.5 45.1421 48.5 41H45.5ZM45.5 8V41H48.5V8H45.5ZM41 3.5C43.4853 3.5 45.5 5.51472 45.5 8H48.5C48.5 3.85787 45.1421 0.5 41 0.5V3.5ZM8 3.5H41V0.5H8V3.5Z" fill="url(#paint0_linear_833_5303)"/>
<defs>
<linearGradient id="paint0_linear_833_5303" x1="24" y1="-6" x2="24" y2="75.5" gradientUnits="userSpaceOnUse">
<stop stop-color="#000000"/>
<stop offset="1" stop-color="#00000"/>
</linearGradient>
</defs>
</svg>
