<svg width="49" height="49" viewBox="0 0 49 49" fill="none" xmlns="http://www.w3.org/2000/svg">
<path d="M40 12L41.5 12L41.5 10.5H40V12ZM40 12.5L38.5 12.5L38.5 12.5L40 12.5ZM39.5 12L39.5 13.5H39.5V12ZM3.00013 12L3.00013 10.5L1.50013 10.5L1.50013 12L3.00013 12ZM3.00013 13L1.50013 13L1.50013 14.5H3.00013V13ZM8.00013 13L9.50013 13L9.50014 11.5H8.00013V13ZM8 35.5L6.5 35.5L6.49999 37L7.99998 37L8 35.5ZM9 35.5L8.99998 37L10.5 37L10.5 35.5L9 35.5ZM9.00013 13V11.5H7.50014L7.50013 13L9.00013 13ZM18.5001 13L20.0001 13L20.0001 11.5H18.5001V13ZM18.5 35.5L17 35.5L17 37L18.5 37L18.5 35.5ZM19.5 35.5L19.5 37L21 37L21 35.5L19.5 35.5ZM19.5001 13V11.5H18.0001L18.0001 13L19.5001 13ZM28.5 13L30 13L30 11.5H28.5V13ZM28.4999 35.5L26.9999 35.5L26.9999 37L28.4999 37L28.4999 35.5ZM29.4999 35.5L29.4999 37L30.9999 37L30.9999 35.5L29.4999 35.5ZM29.5 13V11.5H28L28 13L29.5 13ZM39 13L40.5 13L40.5 11.5H39V13ZM38.9999 35.5L37.4999 35.5L37.4999 37L38.9999 37L38.9999 35.5ZM39.9999 35.5L39.9999 37L41.4999 37L41.4999 35.5L39.9999 35.5ZM3.5 8C3.5 5.51472 5.51472 3.5 8 3.5V0.5C3.85787 0.5 0.5 3.85786 0.5 8H3.5ZM3.5 41V8H0.5V41H3.5ZM8 45.5C5.51472 45.5 3.5 43.4853 3.5 41H0.5C0.5 45.1421 3.85786 48.5 8 48.5V45.5ZM41 45.5H8V48.5H41V45.5ZM45.5 41C45.5 43.4853 43.4853 45.5 41 45.5V48.5C45.1421 48.5 48.5 45.1421 48.5 41H45.5ZM45.5 8V41H48.5V8H45.5ZM41 3.5C43.4853 3.5 45.5 5.51472 45.5 8H48.5C48.5 3.85787 45.1421 0.5 41 0.5V3.5ZM8 3.5H41V0.5H8V3.5ZM38.5 12L38.5 12.5L41.5 12.5L41.5 12L38.5 12ZM39.5 13.5H40V10.5H39.5V13.5ZM3.00013 13.5L39.5 13.5L39.5 10.5L3.00013 10.5L3.00013 13.5ZM4.50013 13L4.50013 12L1.50013 12L1.50013 13L4.50013 13ZM8.00013 11.5H3.00013V14.5H8.00013V11.5ZM9.5 35.5L9.50013 13L6.50013 13L6.5 35.5L9.5 35.5ZM9.00001 34L8.00001 34L7.99998 37L8.99998 37L9.00001 34ZM7.50013 13L7.5 35.5L10.5 35.5L10.5001 13L7.50013 13ZM18.5001 11.5H9.00013V14.5H18.5001V11.5ZM20 35.5L20.0001 13L17.0001 13L17 35.5L20 35.5ZM19.5 34L18.5 34L18.5 37L19.5 37L19.5 34ZM18.0001 13L18 35.5L21 35.5L21.0001 13L18.0001 13ZM28.5 11.5H19.5001V14.5H28.5V11.5ZM29.9999 35.5L30 13L27 13L26.9999 35.5L29.9999 35.5ZM29.4999 34L28.4999 34L28.4999 37L29.4999 37L29.4999 34ZM28 13L27.9999 35.5L30.9999 35.5L31 13L28 13ZM39 11.5H29.5V14.5H39V11.5ZM40.4999 35.5L40.5 13L37.5 13L37.4999 35.5L40.4999 35.5ZM39.9999 34L38.9999 34L38.9999 37L39.9999 37L39.9999 34ZM38.5 12.5L38.4999 35.5L41.4999 35.5L41.5 12.5L38.5 12.5Z" fill="url(#paint0_linear_833_5298)"/>
<defs>
<linearGradient id="paint0_linear_833_5298" x1="24" y1="-14" x2="24" y2="84.5" gradientUnits="userSpaceOnUse">
<stop stop-color="#9829C8"/>
<stop offset="1" stop-color="#CF1820"/>
</linearGradient>
</defs>
</svg>
